# xmcd CD database file
#
# Track frame offsets:
#	150
#	15656
#	29327
#	50904
#	60366
#	71372
#	82825
#	93893
#	105358
#	119009
#	132274
#
# Disc length: 1925 seconds
#
# Revision: 2
# Processed by: cddbd v1.5.2PL0 Copyright (c) Steve Scherf et al.
# Submitted via: CDex 1.77
#
DISCID=8607830b
DTITLE=Waylon Jennings - The Box Set Series - CD2
DYEAR=1900
DGENRE=Country
TTITLE0=Lucille (You Won't Do Your Daddy's Will)
TTITLE1=Drinkin' And Dreamin'
TTITLE2=I Ain't Living Long Like This
TTITLE3=That's The Chance I'll Have To Take
TTITLE4=Anita, You're Dreaming
TTITLE5=You Ask Me To
TTITLE6=This Time
TTITLE7=Rainy Day Woman
TTITLE8=Bob Wills Is Still The King
TTITLE9=Are You Sure Hank Done It This Way?
TTITLE10=Waymore's Blues
EXTD=
EXTT0=
EXTT1=
EXTT2=
EXTT3=
EXTT4=
EXTT5=
EXTT6=
EXTT7=
EXTT8=
EXTT9=
EXTT10=
PLAYORDER=
